<svg xmlns="http://www.w3.org/2000/svg" width="900" height="194" viewBox="0 0 900 194" role="img" aria-label="Tech stack: TypeScript, Next.js, React, Tailwind, Node.js, PostgreSQL, Drizzle ORM, Cloudflare, Vercel, Docker, Swift / SwiftUI, WordPress, PHP, Claude API, PostHog">
  <title>Tech stack</title>
  <defs>
    <linearGradient id="sheen" x1="0" y1="0" x2="1" y2="0">
      <stop offset="0" stop-color="#ffffff" stop-opacity="0"/>
      <stop offset=".5" stop-color="#ffffff" stop-opacity=".10"/>
      <stop offset="1" stop-color="#ffffff" stop-opacity="0"/>
    </linearGradient>
    <filter id="cglow" x="-25%" y="-60%" width="150%" height="220%">
      <feGaussianBlur stdDeviation="2.4" result="b"/>
      <feMerge><feMergeNode in="b"/><feMergeNode in="SourceGraphic"/></feMerge>
    </filter>
    <clipPath id="strip"><rect x="0" y="0" width="900" height="194" rx="16"/></clipPath>
    <style>
      .f-mono { font-family: ui-monospace, "SF Mono", SFMono-Regular, Menlo, Consolas, "Liberation Mono", monospace; }
      .cap { animation: cbreathe 3.2s ease-in-out infinite; }
      @keyframes cbreathe { 0%,100% { opacity:.80 } 50% { opacity:1 } }
      .sheen { animation: cslide 6s linear infinite; }
      @keyframes cslide { from { transform: translateX(-360px) } to { transform: translateX(940px) } }
    </style>
  </defs>

  <g clip-path="url(#strip)">
    <rect width="900" height="194" rx="16" fill="#08060f"/>
    <ellipse cx="120" cy="0"   rx="300" ry="150" fill="#a855f7" fill-opacity=".13"/>
    <ellipse cx="800" cy="194" rx="300" ry="150" fill="#22d3ee" fill-opacity=".11"/>
  <g class="cap" style="animation-delay:0.0s">
    <rect x="14" y="12" width="160" height="46" rx="23.0" fill="#60a5fa" fill-opacity=".07"/>
    <rect x="14" y="12" width="160" height="46" rx="23.0" fill="none" stroke="#60a5fa" stroke-width="1.3" stroke-opacity=".75" filter="url(#cglow)"/>
    <circle cx="33" cy="35.0" r="3.4" fill="#60a5fa"/>
    <text class="f-mono" x="105.0" y="39.6" text-anchor="middle" fill="#dfe5f0" font-size="13" letter-spacing=".3">TypeScript</text>
  </g>
  <g class="cap" style="animation-delay:0.22s">
    <rect x="192" y="12" width="160" height="46" rx="23.0" fill="#e2e8f0" fill-opacity=".07"/>
    <rect x="192" y="12" width="160" height="46" rx="23.0" fill="none" stroke="#e2e8f0" stroke-width="1.3" stroke-opacity=".75" filter="url(#cglow)"/>
    <circle cx="211" cy="35.0" r="3.4" fill="#e2e8f0"/>
    <text class="f-mono" x="283.0" y="39.6" text-anchor="middle" fill="#dfe5f0" font-size="13" letter-spacing=".3">Next.js</text>
  </g>
  <g class="cap" style="animation-delay:0.44s">
    <rect x="370" y="12" width="160" height="46" rx="23.0" fill="#22d3ee" fill-opacity=".07"/>
    <rect x="370" y="12" width="160" height="46" rx="23.0" fill="none" stroke="#22d3ee" stroke-width="1.3" stroke-opacity=".75" filter="url(#cglow)"/>
    <circle cx="389" cy="35.0" r="3.4" fill="#22d3ee"/>
    <text class="f-mono" x="461.0" y="39.6" text-anchor="middle" fill="#dfe5f0" font-size="13" letter-spacing=".3">React</text>
  </g>
  <g class="cap" style="animation-delay:0.66s">
    <rect x="548" y="12" width="160" height="46" rx="23.0" fill="#38bdf8" fill-opacity=".07"/>
    <rect x="548" y="12" width="160" height="46" rx="23.0" fill="none" stroke="#38bdf8" stroke-width="1.3" stroke-opacity=".75" filter="url(#cglow)"/>
    <circle cx="567" cy="35.0" r="3.4" fill="#38bdf8"/>
    <text class="f-mono" x="639.0" y="39.6" text-anchor="middle" fill="#dfe5f0" font-size="13" letter-spacing=".3">Tailwind</text>
  </g>
  <g class="cap" style="animation-delay:0.88s">
    <rect x="726" y="12" width="160" height="46" rx="23.0" fill="#4ade80" fill-opacity=".07"/>
    <rect x="726" y="12" width="160" height="46" rx="23.0" fill="none" stroke="#4ade80" stroke-width="1.3" stroke-opacity=".75" filter="url(#cglow)"/>
    <circle cx="745" cy="35.0" r="3.4" fill="#4ade80"/>
    <text class="f-mono" x="817.0" y="39.6" text-anchor="middle" fill="#dfe5f0" font-size="13" letter-spacing=".3">Node.js</text>
  </g>
  <g class="cap" style="animation-delay:0.4s">
    <rect x="14" y="74" width="160" height="46" rx="23.0" fill="#818cf8" fill-opacity=".07"/>
    <rect x="14" y="74" width="160" height="46" rx="23.0" fill="none" stroke="#818cf8" stroke-width="1.3" stroke-opacity=".75" filter="url(#cglow)"/>
    <circle cx="33" cy="97.0" r="3.4" fill="#818cf8"/>
    <text class="f-mono" x="105.0" y="101.6" text-anchor="middle" fill="#dfe5f0" font-size="13" letter-spacing=".3">PostgreSQL</text>
  </g>
  <g class="cap" style="animation-delay:0.62s">
    <rect x="192" y="74" width="160" height="46" rx="23.0" fill="#facc15" fill-opacity=".07"/>
    <rect x="192" y="74" width="160" height="46" rx="23.0" fill="none" stroke="#facc15" stroke-width="1.3" stroke-opacity=".75" filter="url(#cglow)"/>
    <circle cx="211" cy="97.0" r="3.4" fill="#facc15"/>
    <text class="f-mono" x="283.0" y="101.6" text-anchor="middle" fill="#dfe5f0" font-size="13" letter-spacing=".3">Drizzle ORM</text>
  </g>
  <g class="cap" style="animation-delay:0.84s">
    <rect x="370" y="74" width="160" height="46" rx="23.0" fill="#fb923c" fill-opacity=".07"/>
    <rect x="370" y="74" width="160" height="46" rx="23.0" fill="none" stroke="#fb923c" stroke-width="1.3" stroke-opacity=".75" filter="url(#cglow)"/>
    <circle cx="389" cy="97.0" r="3.4" fill="#fb923c"/>
    <text class="f-mono" x="461.0" y="101.6" text-anchor="middle" fill="#dfe5f0" font-size="13" letter-spacing=".3">Cloudflare</text>
  </g>
  <g class="cap" style="animation-delay:1.06s">
    <rect x="548" y="74" width="160" height="46" rx="23.0" fill="#e2e8f0" fill-opacity=".07"/>
    <rect x="548" y="74" width="160" height="46" rx="23.0" fill="none" stroke="#e2e8f0" stroke-width="1.3" stroke-opacity=".75" filter="url(#cglow)"/>
    <circle cx="567" cy="97.0" r="3.4" fill="#e2e8f0"/>
    <text class="f-mono" x="639.0" y="101.6" text-anchor="middle" fill="#dfe5f0" font-size="13" letter-spacing=".3">Vercel</text>
  </g>
  <g class="cap" style="animation-delay:1.28s">
    <rect x="726" y="74" width="160" height="46" rx="23.0" fill="#22d3ee" fill-opacity=".07"/>
    <rect x="726" y="74" width="160" height="46" rx="23.0" fill="none" stroke="#22d3ee" stroke-width="1.3" stroke-opacity=".75" filter="url(#cglow)"/>
    <circle cx="745" cy="97.0" r="3.4" fill="#22d3ee"/>
    <text class="f-mono" x="817.0" y="101.6" text-anchor="middle" fill="#dfe5f0" font-size="13" letter-spacing=".3">Docker</text>
  </g>
  <g class="cap" style="animation-delay:0.8s">
    <rect x="14" y="136" width="160" height="46" rx="23.0" fill="#fb7185" fill-opacity=".07"/>
    <rect x="14" y="136" width="160" height="46" rx="23.0" fill="none" stroke="#fb7185" stroke-width="1.3" stroke-opacity=".75" filter="url(#cglow)"/>
    <circle cx="33" cy="159.0" r="3.4" fill="#fb7185"/>
    <text class="f-mono" x="105.0" y="163.6" text-anchor="middle" fill="#dfe5f0" font-size="13" letter-spacing=".3">Swift / SwiftUI</text>
  </g>
  <g class="cap" style="animation-delay:1.02s">
    <rect x="192" y="136" width="160" height="46" rx="23.0" fill="#a78bfa" fill-opacity=".07"/>
    <rect x="192" y="136" width="160" height="46" rx="23.0" fill="none" stroke="#a78bfa" stroke-width="1.3" stroke-opacity=".75" filter="url(#cglow)"/>
    <circle cx="211" cy="159.0" r="3.4" fill="#a78bfa"/>
    <text class="f-mono" x="283.0" y="163.6" text-anchor="middle" fill="#dfe5f0" font-size="13" letter-spacing=".3">WordPress</text>
  </g>
  <g class="cap" style="animation-delay:1.24s">
    <rect x="370" y="136" width="160" height="46" rx="23.0" fill="#c4b5fd" fill-opacity=".07"/>
    <rect x="370" y="136" width="160" height="46" rx="23.0" fill="none" stroke="#c4b5fd" stroke-width="1.3" stroke-opacity=".75" filter="url(#cglow)"/>
    <circle cx="389" cy="159.0" r="3.4" fill="#c4b5fd"/>
    <text class="f-mono" x="461.0" y="163.6" text-anchor="middle" fill="#dfe5f0" font-size="13" letter-spacing=".3">PHP</text>
  </g>
  <g class="cap" style="animation-delay:1.46s">
    <rect x="548" y="136" width="160" height="46" rx="23.0" fill="#f0abfc" fill-opacity=".07"/>
    <rect x="548" y="136" width="160" height="46" rx="23.0" fill="none" stroke="#f0abfc" stroke-width="1.3" stroke-opacity=".75" filter="url(#cglow)"/>
    <circle cx="567" cy="159.0" r="3.4" fill="#f0abfc"/>
    <text class="f-mono" x="639.0" y="163.6" text-anchor="middle" fill="#dfe5f0" font-size="13" letter-spacing=".3">Claude API</text>
  </g>
  <g class="cap" style="animation-delay:1.68s">
    <rect x="726" y="136" width="160" height="46" rx="23.0" fill="#fde047" fill-opacity=".07"/>
    <rect x="726" y="136" width="160" height="46" rx="23.0" fill="none" stroke="#fde047" stroke-width="1.3" stroke-opacity=".75" filter="url(#cglow)"/>
    <circle cx="745" cy="159.0" r="3.4" fill="#fde047"/>
    <text class="f-mono" x="817.0" y="163.6" text-anchor="middle" fill="#dfe5f0" font-size="13" letter-spacing=".3">PostHog</text>
  </g>
    <rect class="sheen" x="0" y="0" width="340" height="194" fill="url(#sheen)"/>
  </g>
</svg>
